<svg width="21" height="21" viewBox="0 0 21 21" fill="none" xmlns="http://www.w3.org/2000/svg">
<g clip-path="url(#clip0_831_10121)">
<path d="M10.027 20.1004C15.1053 20.1004 19.222 15.9837 19.222 10.9054C19.222 5.82719 15.1053 1.71045 10.027 1.71045C4.94877 1.71045 0.832031 5.82719 0.832031 10.9054C0.832031 15.9837 4.94877 20.1004 10.027 20.1004Z" fill="#05060F"/>
<path fill-rule="evenodd" clip-rule="evenodd" d="M15.1711 7.4651C15.5324 7.84358 15.5184 8.44325 15.1399 8.80452L9.00993 14.6559C8.82528 14.8321 8.57735 14.9264 8.32226 14.9174C8.06717 14.9083 7.82651 14.7967 7.65482 14.6078L4.86845 11.5429C4.5165 11.1557 4.54503 10.5566 4.93218 10.2046C5.31933 9.85268 5.91848 9.88118 6.27043 10.2684L8.40382 12.6151L13.8317 7.43396C14.2101 7.07269 14.8098 7.08664 15.1711 7.4651Z" fill="white"/>
</g>
<defs>
<clipPath id="clip0_831_10121">
<rect width="20.0618" height="20.0618" fill="white" transform="translate(-0.00390625 0.874756)"/>
</clipPath>
</defs>
</svg>
