<svg width="292" height="235" viewBox="0 0 292 235" fill="none" xmlns="http://www.w3.org/2000/svg">
<mask id="path-1-inside-1_980_5668" fill="white">
<path d="M114.161 0.125C129.156 0.125 136.655 0.124603 142.382 3.04297C147.421 5.61008 151.516 9.70688 154.083 14.7451C157.675 21.7936 163.062 28.5098 170.973 28.5098H220.596C245.59 28.5098 258.087 28.509 267.633 33.373C276.03 37.6515 282.857 44.479 287.135 52.876C291.999 62.4222 292 74.9189 292 99.9121V163.545C292 188.538 291.999 201.035 287.135 210.581C282.857 218.978 276.03 225.805 267.633 230.084C258.087 234.948 245.59 234.947 220.596 234.947H71.4448C46.4514 234.947 33.9539 234.948 24.4077 230.084C16.0108 225.805 9.18428 218.978 4.90576 210.581C0.0417378 201.035 0.0415039 188.538 0.0415039 163.545V99.9121C0.0415039 91.7765 0.0426821 84.9651 0.210449 79.1484V71.5283C0.210449 46.5353 0.210911 34.0383 5.07471 24.4922C9.35322 16.0951 16.1806 9.26779 24.5776 4.98926C34.1238 0.125228 46.6205 0.125 71.6138 0.125H114.161Z"/>
</mask>
<path d="M114.161 0.125C129.156 0.125 136.655 0.124603 142.382 3.04297C147.421 5.61008 151.516 9.70688 154.083 14.7451C157.675 21.7936 163.062 28.5098 170.973 28.5098H220.596C245.59 28.5098 258.087 28.509 267.633 33.373C276.03 37.6515 282.857 44.479 287.135 52.876C291.999 62.4222 292 74.9189 292 99.9121V163.545C292 188.538 291.999 201.035 287.135 210.581C282.857 218.978 276.03 225.805 267.633 230.084C258.087 234.948 245.59 234.947 220.596 234.947H71.4448C46.4514 234.947 33.9539 234.948 24.4077 230.084C16.0108 225.805 9.18428 218.978 4.90576 210.581C0.0417378 201.035 0.0415039 188.538 0.0415039 163.545V99.9121C0.0415039 91.7765 0.0426821 84.9651 0.210449 79.1484V71.5283C0.210449 46.5353 0.210911 34.0383 5.07471 24.4922C9.35322 16.0951 16.1806 9.26779 24.5776 4.98926C34.1238 0.125228 46.6205 0.125 71.6138 0.125H114.161Z" fill="url(#paint0_linear_980_5668)"/>
<path d="M114.161 0.125V-1.66245V0.125ZM142.382 3.04297L143.194 1.45034V1.45034L142.382 3.04297ZM267.633 33.373L268.445 31.7804V31.7804L267.633 33.373ZM287.135 52.876L288.728 52.0645V52.0645L287.135 52.876ZM292 99.9121H293.787H292ZM292 163.545H293.787H292ZM287.135 210.581L288.728 211.393V211.393L287.135 210.581ZM267.633 230.084L268.445 231.677L267.633 230.084ZM24.4077 230.084L23.5962 231.677H23.5962L24.4077 230.084ZM4.90576 210.581L3.31314 211.393L3.31314 211.393L4.90576 210.581ZM0.0415039 163.545H-1.74594H0.0415039ZM0.0415039 99.9121H-1.74594H0.0415039ZM0.210449 79.1484L1.99715 79.2L1.99789 79.1742V79.1484H0.210449ZM5.07471 24.4922L3.48208 23.6807L3.48207 23.6807L5.07471 24.4922ZM24.5776 4.98926L23.7662 3.39663L23.7661 3.39663L24.5776 4.98926ZM71.6138 0.125V-1.66245V0.125ZM114.161 0.125V1.91245C121.688 1.91245 127.226 1.91374 131.602 2.27111C135.956 2.62678 139.001 3.32622 141.571 4.6356L142.382 3.04297L143.194 1.45034C140.036 -0.158646 136.468 -0.918192 131.893 -1.29192C127.338 -1.66393 121.629 -1.66245 114.161 -1.66245V0.125ZM142.382 3.04297L141.571 4.63559C146.273 7.03127 150.095 10.8546 152.491 15.5566L154.083 14.7451L155.676 13.9336C152.938 8.55921 148.569 4.1889 143.194 1.45034L142.382 3.04297ZM170.973 28.5098V30.2972H220.596V28.5098V26.7223H170.973V28.5098ZM220.596 28.5098V30.2972C233.122 30.2972 242.41 30.2984 249.762 30.8989C257.093 31.4977 262.343 32.6835 266.822 34.9657L267.633 33.373L268.445 31.7804C263.378 29.1986 257.605 27.9527 250.053 27.3359C242.521 26.7207 233.063 26.7223 220.596 26.7223V28.5098ZM267.633 33.373L266.822 34.9657C274.882 39.0727 281.435 45.6268 285.543 53.6875L287.135 52.876L288.728 52.0645C284.278 43.3313 277.178 36.2303 268.445 31.7804L267.633 33.373ZM287.135 52.876L285.543 53.6875C287.825 58.1666 289.011 63.4159 289.61 70.747C290.211 78.0989 290.212 87.386 290.212 99.9121H292H293.787C293.787 87.445 293.788 77.9871 293.173 70.4558C292.556 62.9037 291.31 57.1315 288.728 52.0645L287.135 52.876ZM292 99.9121H290.212V163.545H292H293.787V99.9121H292ZM292 163.545H290.212C290.212 176.071 290.211 185.358 289.61 192.71C289.011 200.041 287.825 205.29 285.543 209.77L287.135 210.581L288.728 211.393C291.31 206.325 292.556 200.553 293.173 193.001C293.788 185.47 293.787 176.012 293.787 163.545H292ZM287.135 210.581L285.543 209.77C281.435 217.83 274.882 224.384 266.822 228.491L267.633 230.084L268.445 231.677C277.178 227.227 284.278 220.126 288.728 211.393L287.135 210.581ZM267.633 230.084L266.822 228.491C262.343 230.774 257.093 231.959 249.762 232.558C242.41 233.159 233.122 233.16 220.596 233.16V234.947V236.735C233.063 236.735 242.521 236.736 250.053 236.121C257.605 235.504 263.378 234.258 268.445 231.677L267.633 230.084ZM220.596 234.947V233.16H71.4448V234.947V236.735H220.596V234.947ZM71.4448 234.947V233.16C58.9186 233.16 49.6312 233.159 42.2791 232.558C34.9478 231.959 29.6983 230.774 25.2192 228.491L24.4077 230.084L23.5962 231.677C28.6634 234.258 34.4357 235.504 41.9881 236.121C49.5195 236.736 58.9776 236.735 71.4448 236.735V234.947ZM24.4077 230.084L25.2192 228.491C17.1587 224.384 10.6056 217.83 6.49838 209.77L4.90576 210.581L3.31314 211.393C7.76298 220.126 14.8629 227.227 23.5962 231.677L24.4077 230.084ZM4.90576 210.581L6.49839 209.77C4.21616 205.29 3.03016 200.041 2.43113 192.71C1.8304 185.358 1.82895 176.071 1.82895 163.545H0.0415039H-1.74594C-1.74594 176.012 -1.74727 185.47 -1.13188 193.001C-0.51479 200.553 0.73134 206.325 3.31314 211.393L4.90576 210.581ZM0.0415039 163.545H1.82895V99.9121H0.0415039H-1.74594V163.545H0.0415039ZM0.0415039 99.9121H1.82895C1.82895 91.7684 1.83028 84.9854 1.99715 79.2L0.210449 79.1484L-1.57625 79.0969C-1.74492 84.9447 -1.74594 91.7846 -1.74594 99.9121H0.0415039ZM0.210449 79.1484H1.99789V71.5283H0.210449H-1.577V79.1484H0.210449ZM0.210449 71.5283H1.99789C1.99789 59.0023 1.9994 49.7152 2.60016 42.3633C3.19922 35.0322 4.38522 29.7828 6.66735 25.3036L5.07471 24.4922L3.48207 23.6807C0.900399 28.7478 -0.34573 34.5199 -0.962852 42.0721C-1.57827 49.6034 -1.577 59.0613 -1.577 71.5283H0.210449ZM5.07471 24.4922L6.66733 25.3037C10.7745 17.2429 17.3284 10.6891 25.3891 6.58188L24.5776 4.98926L23.7661 3.39663C15.0328 7.84654 7.93197 14.9473 3.48208 23.6807L5.07471 24.4922ZM24.5776 4.98926L25.3891 6.58188C29.8682 4.29965 35.1176 3.11365 42.4486 2.51463C49.8005 1.91389 59.0876 1.91245 71.6138 1.91245V0.125V-1.66245C59.1466 -1.66245 49.6888 -1.66378 42.1575 -1.04839C34.6053 -0.431297 28.8332 0.814834 23.7662 3.39663L24.5776 4.98926ZM71.6138 0.125V1.91245H114.161V0.125V-1.66245H71.6138V0.125ZM154.083 14.7451L152.491 15.5566C156.104 22.6487 161.937 30.2972 170.973 30.2972V28.5098V26.7223C164.187 26.7223 159.245 20.9385 155.676 13.9336L154.083 14.7451Z" fill="url(#paint1_linear_980_5668)" mask="url(#path-1-inside-1_980_5668)"/>
<path d="M114.161 0.125V-1.66245V0.125ZM142.382 3.04297L143.194 1.45034V1.45034L142.382 3.04297ZM267.633 33.373L268.445 31.7804V31.7804L267.633 33.373ZM287.135 52.876L288.728 52.0645V52.0645L287.135 52.876ZM292 99.9121H293.787H292ZM292 163.545H293.787H292ZM287.135 210.581L288.728 211.393V211.393L287.135 210.581ZM267.633 230.084L268.445 231.677L267.633 230.084ZM24.4077 230.084L23.5962 231.677H23.5962L24.4077 230.084ZM4.90576 210.581L3.31314 211.393L3.31314 211.393L4.90576 210.581ZM0.0415039 163.545H-1.74594H0.0415039ZM0.0415039 99.9121H-1.74594H0.0415039ZM0.210449 79.1484L1.99715 79.2L1.99789 79.1742V79.1484H0.210449ZM5.07471 24.4922L3.48208 23.6807L3.48207 23.6807L5.07471 24.4922ZM24.5776 4.98926L23.7662 3.39663L23.7661 3.39663L24.5776 4.98926ZM71.6138 0.125V-1.66245V0.125ZM114.161 0.125V1.91245C121.688 1.91245 127.226 1.91374 131.602 2.27111C135.956 2.62678 139.001 3.32622 141.571 4.6356L142.382 3.04297L143.194 1.45034C140.036 -0.158646 136.468 -0.918192 131.893 -1.29192C127.338 -1.66393 121.629 -1.66245 114.161 -1.66245V0.125ZM142.382 3.04297L141.571 4.63559C146.273 7.03127 150.095 10.8546 152.491 15.5566L154.083 14.7451L155.676 13.9336C152.938 8.55921 148.569 4.1889 143.194 1.45034L142.382 3.04297ZM170.973 28.5098V30.2972H220.596V28.5098V26.7223H170.973V28.5098ZM220.596 28.5098V30.2972C233.122 30.2972 242.41 30.2984 249.762 30.8989C257.093 31.4977 262.343 32.6835 266.822 34.9657L267.633 33.373L268.445 31.7804C263.378 29.1986 257.605 27.9527 250.053 27.3359C242.521 26.7207 233.063 26.7223 220.596 26.7223V28.5098ZM267.633 33.373L266.822 34.9657C274.882 39.0727 281.435 45.6268 285.543 53.6875L287.135 52.876L288.728 52.0645C284.278 43.3313 277.178 36.2303 268.445 31.7804L267.633 33.373ZM287.135 52.876L285.543 53.6875C287.825 58.1666 289.011 63.4159 289.61 70.747C290.211 78.0989 290.212 87.386 290.212 99.9121H292H293.787C293.787 87.445 293.788 77.9871 293.173 70.4558C292.556 62.9037 291.31 57.1315 288.728 52.0645L287.135 52.876ZM292 99.9121H290.212V163.545H292H293.787V99.9121H292ZM292 163.545H290.212C290.212 176.071 290.211 185.358 289.61 192.71C289.011 200.041 287.825 205.29 285.543 209.77L287.135 210.581L288.728 211.393C291.31 206.325 292.556 200.553 293.173 193.001C293.788 185.47 293.787 176.012 293.787 163.545H292ZM287.135 210.581L285.543 209.77C281.435 217.83 274.882 224.384 266.822 228.491L267.633 230.084L268.445 231.677C277.178 227.227 284.278 220.126 288.728 211.393L287.135 210.581ZM267.633 230.084L266.822 228.491C262.343 230.774 257.093 231.959 249.762 232.558C242.41 233.159 233.122 233.16 220.596 233.16V234.947V236.735C233.063 236.735 242.521 236.736 250.053 236.121C257.605 235.504 263.378 234.258 268.445 231.677L267.633 230.084ZM220.596 234.947V233.16H71.4448V234.947V236.735H220.596V234.947ZM71.4448 234.947V233.16C58.9186 233.16 49.6312 233.159 42.2791 232.558C34.9478 231.959 29.6983 230.774 25.2192 228.491L24.4077 230.084L23.5962 231.677C28.6634 234.258 34.4357 235.504 41.9881 236.121C49.5195 236.736 58.9776 236.735 71.4448 236.735V234.947ZM24.4077 230.084L25.2192 228.491C17.1587 224.384 10.6056 217.83 6.49838 209.77L4.90576 210.581L3.31314 211.393C7.76298 220.126 14.8629 227.227 23.5962 231.677L24.4077 230.084ZM4.90576 210.581L6.49839 209.77C4.21616 205.29 3.03016 200.041 2.43113 192.71C1.8304 185.358 1.82895 176.071 1.82895 163.545H0.0415039H-1.74594C-1.74594 176.012 -1.74727 185.47 -1.13188 193.001C-0.51479 200.553 0.73134 206.325 3.31314 211.393L4.90576 210.581ZM0.0415039 163.545H1.82895V99.9121H0.0415039H-1.74594V163.545H0.0415039ZM0.0415039 99.9121H1.82895C1.82895 91.7684 1.83028 84.9854 1.99715 79.2L0.210449 79.1484L-1.57625 79.0969C-1.74492 84.9447 -1.74594 91.7846 -1.74594 99.9121H0.0415039ZM0.210449 79.1484H1.99789V71.5283H0.210449H-1.577V79.1484H0.210449ZM0.210449 71.5283H1.99789C1.99789 59.0023 1.9994 49.7152 2.60016 42.3633C3.19922 35.0322 4.38522 29.7828 6.66735 25.3036L5.07471 24.4922L3.48207 23.6807C0.900399 28.7478 -0.34573 34.5199 -0.962852 42.0721C-1.57827 49.6034 -1.577 59.0613 -1.577 71.5283H0.210449ZM5.07471 24.4922L6.66733 25.3037C10.7745 17.2429 17.3284 10.6891 25.3891 6.58188L24.5776 4.98926L23.7661 3.39663C15.0328 7.84654 7.93197 14.9473 3.48208 23.6807L5.07471 24.4922ZM24.5776 4.98926L25.3891 6.58188C29.8682 4.29965 35.1176 3.11365 42.4486 2.51463C49.8005 1.91389 59.0876 1.91245 71.6138 1.91245V0.125V-1.66245C59.1466 -1.66245 49.6888 -1.66378 42.1575 -1.04839C34.6053 -0.431297 28.8332 0.814834 23.7662 3.39663L24.5776 4.98926ZM71.6138 0.125V1.91245H114.161V0.125V-1.66245H71.6138V0.125ZM154.083 14.7451L152.491 15.5566C156.104 22.6487 161.937 30.2972 170.973 30.2972V28.5098V26.7223C164.187 26.7223 159.245 20.9385 155.676 13.9336L154.083 14.7451Z" fill="url(#paint2_linear_980_5668)" mask="url(#path-1-inside-1_980_5668)"/>
<defs>
<linearGradient id="paint0_linear_980_5668" x1="583.958" y1="465.971" x2="-9.01518" y2="16.3473" gradientUnits="userSpaceOnUse">
<stop stop-color="#FF4B2B" stop-opacity="0.6"/>
<stop offset="1" stop-color="#FF416C" stop-opacity="0.6"/>
</linearGradient>
<linearGradient id="paint1_linear_980_5668" x1="0.0414997" y1="4.40318" x2="243.964" y2="288.399" gradientUnits="userSpaceOnUse">
<stop offset="0.508799" stop-color="white" stop-opacity="0.48"/>
<stop offset="1" stop-color="white" stop-opacity="0.73"/>
</linearGradient>
<linearGradient id="paint2_linear_980_5668" x1="0.0415087" y1="4.40317" x2="296.781" y2="238.766" gradientUnits="userSpaceOnUse">
<stop offset="0.228092" stop-color="white" stop-opacity="0.12"/>
<stop offset="0.99027" stop-color="white" stop-opacity="0"/>
</linearGradient>
</defs>
</svg>
